<svg xmlns="http://www.w3.org/2000/svg" xmlns:xlink="http://www.w3.org/1999/xlink" width="26" height="26" viewBox="0 0 26 26"><defs><linearGradient id="a"><stop offset="0" stop-color="#16ff6a"/><stop offset="1" stop-color="#0090a5"/></linearGradient><linearGradient id="b" x1="1073.403" x2="1097.116" y1="516.451" y2="544.308" gradientTransform="matrix(.833 0 0 .833 -890.43 596.81)" gradientUnits="userSpaceOnUse" xlink:href="#a"/></defs><g transform="translate(0 -1026.362)"><rect width="26" height="26" y="1026.362" fill="url(#b)" rx="5.495" ry="5.495"/><path fill="#fff" d="M 13 7.84375 C 12.875732 7.84375 12.772 7.908 12.6875 8 L 9.84375 11.21875 C 9.1789147 12.00785 8.84375 12.9334 8.84375 13.9375 C 8.84375 16.2501 10.702279 18.15625 13 18.15625 C 15.297721 18.15625 17.15625 16.2501 17.15625 13.9375 C 17.15625 12.8663 16.743125 11.8329 16 11.0625 C 15.98136 11.0238 15.96608 10.99975 15.9375 10.96875 L 13.34375 8 C 13.26049 7.9034 13.08077 7.86475 13 7.84375 z M 13 8.9375 L 15.25 11.5 C 15.27734 11.5532 15.31144 11.593 15.34375 11.625 C 15.956393 12.2364 16.28125 13.0689 16.28125 13.9375 C 16.28125 15.7705 14.816802 17.28125 13 17.28125 C 11.183198 17.28125 9.71875 15.7705 9.71875 13.9375 C 9.71875 13.141 9.9731024 12.40635 10.5 11.78125 L 13 8.9375 z " transform="translate(0 1026.362)"/></g></svg>